<svg width="16" height="16" viewBox="0 0 16 16" fill="none" xmlns="http://www.w3.org/2000/svg"><g clip-path="url(#clip0)"><path d="M8 8h8c0-1.5-.4-2.8-1.1-4L8 8z" fill="#F5AC43"/><path d="M8 8l-6.9 4c.7 1.2 1.7 2.2 2.9 2.9L8 8z" fill="#515EBB"/><path d="M8 8v8c1.5 0 2.8-.4 4-1.1L8 8z" fill="#D0449A"/><path d="M4 14.9c1.2.7 2.5 1.1 4 1.1V8l-4 6.9z" fill="#7C39B1"/><path d="M14.9 4c-.7-1.2-1.7-2.2-2.9-2.9L8 8l6.9-4z" fill="#F8CE33"/><path d="M8 8H0c0 1.5.4 2.8 1.1 4L8 8z" fill="#177AC3"/><path d="M8 8l4 6.9c1.2-.7 2.2-1.7 2.9-2.9L8 8z" fill="#FE4A29"/><path d="M8 8l6.9 4c.7-1.2 1.1-2.5 1.1-4H8z" fill="#F97932"/><path d="M8 8L1.1 4C.4 5.2 0 6.5 0 8h8z" fill="#1AB3D0"/><path d="M8 8l4-6.9C10.8.4 9.5 0 8 0v8z" fill="#FCF222"/><path d="M8 0C6.5 0 5.2.4 4 1.1L8 8V0z" fill="#89D31C"/><path d="M8 8L4 1.1C2.8 1.8 1.8 2.8 1.1 4L8 8z" fill="#33B634"/></g><defs><clipPath id="clip0"><path fill="#fff" d="M0 0h16v16H0z"/></clipPath></defs></svg>