<svg xmlns="http://www.w3.org/2000/svg" width="147" height="22" fill="none"><path fill="#17D1C6" d="M13.462 7.626H7.816L6.05 4.606h9.178L17.902 0H2.732a2.73 2.73 0 0 0-2.36 1.354 2.652 2.652 0 0 0 0 2.707l9.673 16.606c.76 1.288 2.443 1.717 3.747.958a2.86 2.86 0 0 0 .974-.958l.313-.545-4.44-7.659 2.823-4.837Z"/><path fill="#17D1C6" d="M24.473 1.354A2.71 2.71 0 0 0 22.112 0h-.66l-7.264 12.463 2.675 4.606 7.61-13.041a2.67 2.67 0 0 0 0-2.674Z"/><path fill="#fff" d="M107.307 12.892a.338.338 0 0 0-.314.231c-.594 1.932-1.783 3.22-3.598 3.22-2.394 0-4.193-2.295-4.193-5.333 0-3.136 1.733-5.332 4.193-5.332 1.865 0 3.037 1.238 3.615 3.203a.337.337 0 0 0 .313.23h4.193a.3.3 0 0 0 .297-.346c-.924-4.803-4.638-6.57-8.418-6.57-4.309 0-8.898 2.328-8.898 8.832 0 6.504 4.606 8.831 8.898 8.831 3.78 0 7.494-1.783 8.418-6.586a.292.292 0 0 0-.297-.347h-4.209v-.033ZM91.278 2.674h-4.011a.349.349 0 0 0-.347.347V19c0 .181.148.346.347.346h4.01a.349.349 0 0 0 .347-.346V3.02a.338.338 0 0 0-.346-.346ZM41.525 5.513V3.021a.349.349 0 0 0-.347-.347h-9.822a.349.349 0 0 0-.346.347V19c0 .181.148.346.346.346h4.012a.349.349 0 0 0 .346-.346v-6.24a.35.35 0 0 1 .347-.347h5.134a.349.349 0 0 0 .346-.346V9.59a.349.349 0 0 0-.346-.347H36.06a.349.349 0 0 1-.347-.347V6.19a.35.35 0 0 1 .347-.347h5.134c.165 0 .33-.148.33-.33ZM72.262 3.02v2.493a.35.35 0 0 0 .347.347h2.724c.181 0 .346.149.346.347v12.826c0 .165.132.313.314.313h4.06a.313.313 0 0 0 .314-.313V6.19a.35.35 0 0 1 .347-.347h2.724a.349.349 0 0 0 .346-.346V3.02a.349.349 0 0 0-.346-.347H72.625c-.214 0-.363.149-.363.347ZM55.143 16.507V19a.349.349 0 0 1-.346.346h-9.822a.349.349 0 0 1-.347-.346V3.02c0-.18.148-.346.347-.346h4.01a.35.35 0 0 1 .348.347v12.81c0 .181.148.346.346.346h5.134c.165-.016.33.132.33.33Zm16.458 2.509-4.523-16.16a.248.248 0 0 0-.247-.182h-4.92a.268.268 0 0 0-.247.182l-4.523 16.16c-.05.165.082.314.248.314h4.258a.263.263 0 0 0 .248-.198l.43-2.047a.514.514 0 0 1 .511-.413h3.054c.247 0 .462.165.511.413l.43 2.047c.016.115.132.198.247.198h4.26c.197 0 .313-.149.263-.314Zm-8.435-5.596c-.148 0-.264-.148-.231-.297.33-1.551 1.32-6.256 1.32-6.256.017-.083.05-.132.116-.132.083 0 .116.066.116.132 0 0 1.04 4.969 1.32 6.256.033.149-.082.297-.23.297h-2.41Zm59.41 6.405c-4.308 0-8.897-2.327-8.897-8.831s4.605-8.832 8.897-8.832c4.309 0 8.914 2.328 8.914 8.832 0 6.504-4.605 8.831-8.914 8.831Zm0-14.163c-2.476 0-4.193 2.195-4.193 5.332 0 3.037 1.8 5.332 4.193 5.332 2.41 0 4.21-2.295 4.21-5.332.016-3.137-1.717-5.332-4.21-5.332Zm19.643-2.658-.033 7.676c0 .083-.115.116-.148.033L137.68 2.84a.32.32 0 0 0-.281-.165h-2.724a.331.331 0 0 0-.33.33v16.012c0 .182.149.33.33.33h3.45a.332.332 0 0 0 .331-.33v-7.758c0-.083.115-.116.148-.033l4.325 7.956a.32.32 0 0 0 .281.165h2.789a.332.332 0 0 0 .331-.33V3.004a.332.332 0 0 0-.331-.33h-3.45a.331.331 0 0 0-.33.33Z"/></svg>