<svg width="16" height="16" viewBox="0 0 16 16" fill="none" xmlns="http://www.w3.org/2000/svg"><path d="M6.439 4.968l1.819-3.384 1.823 3.39c.155.29.418.506.731.603l3.895 1.207-2.266 2.732a1.25 1.25 0 00-.288.798v4.14L8.6 13.51a1.25 1.25 0 00-.734.028l-3.909 1.367.383-3.956a1.25 1.25 0 00-.29-.928L1.326 6.805l4.35-1.226-.203-.721.204.721a1.25 1.25 0 00.762-.61z" stroke="#374957" stroke-width="1.5" stroke-miterlimit="16" stroke-linecap="round"/><path d="M11 9l1 1m-6 3l1 1m0-3l3 3m-1-4l3 3" stroke="#374957" stroke-linecap="round"/></svg>