<svg width="16" height="16" viewBox="0 0 16 16" fill="none" xmlns="http://www.w3.org/2000/svg"><g clip-path="url(#clip0)"><path d="M7.999 8.802l-4.621 1.5-.324 5.306 4.944-6.806z" fill="#91DC5A"/><path d="M16 6.203l-5.143-1.331L8 8.802l8-2.6z" fill="#933EC5"/><path d="M7.999 8.802l-4.945 6.806 4.944-1.944V8.802z" fill="#64C37D"/><path d="M0 6.202l3.378 4.1L8 8.802l-8-2.6z" fill="#FF9811"/><path d="M12.622 10.304L8 8.802l4.944 6.81-.322-5.306v-.002z" fill="#00D7DF"/><path d="M8 8.802V.389L5.144 4.87h.001L8 8.8z" fill="#EA348B"/><path d="M8 8.802l2.857-3.93L8 .389v8.413z" fill="#F7AED1"/><path d="M5.145 4.87h-.002L0 6.203l8 2.6L5.144 4.87z" fill="#FFDA44"/><path d="M8 8.802l-.002 4.862 4.946 1.947-4.945-6.81z" fill="#99EFF2"/><path d="M12.622 10.304l3.379-4.101L8 8.802l4.622 1.502z" fill="#7C84E8"/><path fill-rule="evenodd" clip-rule="evenodd" d="M12.437 15.264a.779.779 0 01-.363-.09l-4.09-2.15-4.09 2.15a.78.78 0 01-1.13-.822l.78-4.554L.235 6.573a.78.78 0 01.433-1.33l4.572-.665L7.285.435a.78.78 0 011.399 0l2.045 4.143 4.572.665a.78.78 0 01.432 1.33l-3.308 3.225.78 4.554a.78.78 0 01-.768.912zm-4.453-3.9c.125 0 .25.03.363.089l3.055 1.606-.584-3.401a.78.78 0 01.225-.69l2.47-2.41-3.414-.495a.78.78 0 01-.587-.427L7.984 2.542 6.457 5.636a.78.78 0 01-.587.427l-3.415.496 2.471 2.408a.78.78 0 01.225.69l-.584 3.402 3.055-1.606a.78.78 0 01.362-.09z" fill="#374957"/></g><defs><clipPath id="clip0"><path fill="#fff" d="M0 0h16v16H0z"/></clipPath></defs></svg>