<?xml version="1.0" encoding="UTF-8" standalone="no"?>
<!-- Generator: Adobe Illustrator 21.1.0, SVG Export Plug-In . SVG Version: 6.00 Build 0)  -->

<svg
   xmlns:dc="http://purl.org/dc/elements/1.1/"
   xmlns:cc="http://creativecommons.org/ns#"
   xmlns:rdf="http://www.w3.org/1999/02/22-rdf-syntax-ns#"
   xmlns:svg="http://www.w3.org/2000/svg"
   xmlns="http://www.w3.org/2000/svg"
   xmlns:sodipodi="http://sodipodi.sourceforge.net/DTD/sodipodi-0.dtd"
   xmlns:inkscape="http://www.inkscape.org/namespaces/inkscape"
   version="1.1"
   id="Layer_1"
   x="0px"
   y="0px"
   viewBox="0 0 513.09998 217.19999"
   xml:space="preserve"
   sodipodi:docname="logo.svg"
   width="513.09998"
   height="217.2"
   inkscape:version="0.92.5 (2060ec1f9f, 2020-04-08)"><metadata
   id="metadata904"><rdf:RDF><cc:Work
       rdf:about=""><dc:format>image/svg+xml</dc:format><dc:type
         rdf:resource="http://purl.org/dc/dcmitype/StillImage" /></cc:Work></rdf:RDF></metadata><defs
   id="defs902" /><sodipodi:namedview
   pagecolor="#ffffff"
   bordercolor="#666666"
   borderopacity="1"
   objecttolerance="10"
   gridtolerance="10"
   guidetolerance="10"
   inkscape:pageopacity="0"
   inkscape:pageshadow="2"
   inkscape:window-width="2518"
   inkscape:window-height="1376"
   id="namedview900"
   showgrid="false"
   inkscape:zoom="1.982908"
   inkscape:cx="258"
   inkscape:cy="107.65"
   inkscape:window-x="1962"
   inkscape:window-y="27"
   inkscape:window-maximized="1"
   inkscape:current-layer="Layer_1" />
<style
   type="text/css"
   id="style883">
	.st0{fill-rule:evenodd;clip-rule:evenodd;}
</style>
<g
   id="g897"
   transform="translate(-94.5,-94)">
	<g
   id="g887">
		<path
   class="st0"
   d="M 123,229.1 H 98.3 V 136.9 H 123 Z m 23.7,-35.6 c 7.6,8.4 19.2,14.6 31.4,14.6 11.4,0 19.4,-7 19.4,-16.7 0,-17.1 -24.7,-19.2 -42.6,-29.6 -10.5,-6.1 -18.8,-15.2 -18.8,-30.2 0,-23.8 21.9,-37.4 43.9,-37.4 13.5,0 26,3.2 38.6,12.5 l -13.3,19 c -5.3,-4.9 -14.3,-8.7 -23,-8.7 -9.7,0 -20.5,4.2 -20.5,14.4 0,21.5 61.4,14.8 61.4,59.7 0,23.6 -21.1,39.9 -45.1,39.9 -17.9,0 -34.4,-7.4 -48.1,-20 z m 153.2,35.6 c -3.2,1.1 -10.7,1.9 -15.4,1.9 -14.8,0 -25.7,-4.9 -31.9,-13.3 -4.7,-6.3 -6.8,-14.4 -6.8,-27.6 V 157.8 H 220 v -20.9 h 25.7 v -25.7 h 24.7 v 25.7 h 30.4 v 20.9 H 270.4 V 193 c 0,5.7 0.9,9.1 3,11.6 2.5,2.9 6.4,4.6 12.5,4.6 3.6,0 8.4,-0.6 10.1,-0.9 z M 354.7,135 c 27.9,0 49,21.5 49,48.1 0,26.6 -21.1,47.9 -49,47.9 -27.9,0 -49,-21.3 -49,-47.9 -0.1,-26.7 21,-48.1 49,-48.1 z m 0,73.1 c 14.4,0 24.3,-11.2 24.3,-25.1 0,-13.9 -9.9,-25.3 -24.3,-25.3 -14.5,0 -24.3,11.4 -24.3,25.3 -0.1,13.9 9.8,25.1 24.3,25.1 z m 146.6,2.1 c -10.8,14.4 -24.5,20.7 -41.8,20.7 -28.5,0 -49.4,-21.3 -49.4,-47.9 0,-26.8 21.5,-48.1 49.6,-48.1 16,0 30.2,7.4 38.8,18.4 L 481,168.7 c -4.9,-6.5 -12.3,-11 -21.3,-11 -14.3,0 -24.9,11.2 -24.9,25.3 0,14.4 10.5,25.1 25.5,25.1 10.1,0 18,-6.1 22,-12.2 z m 55.5,-31.9 50.8,50.8 h -33.3 l -39,-39.9 v 39.9 H 510.6 V 96 h 24.7 v 70.7 L 567,136.8 h 34.8 z M 94.5,110.2 c 0,-8.9 7.2,-16.2 16.2,-16.2 8.9,0 16.2,7.2 16.2,16.2 0,8.9 -7.2,16.2 -16.2,16.2 -9,0 -16.2,-7.2 -16.2,-16.2 z"
   id="path885"
   inkscape:connector-curvature="0"
   style="clip-rule:evenodd;fill-rule:evenodd" />
	</g>
	<path
   class="st0"
   d="m 98.1,294 h 4.7 V 261.2 H 98 v -5 h 10.3 v 14.6 c 3.2,-3.4 7,-5.1 11.6,-5.1 9.8,0 16.8,7.5 16.8,17 0,9.7 -7.1,17.1 -17,17.1 -4.4,0 -7.9,-1.6 -11.3,-5 v 4.3 H 98.1 Z m 21.5,-23 c -6.1,0 -11.3,5 -11.3,11.9 0,6.5 5.2,11.6 11.2,11.6 6.1,0 11.3,-4.9 11.3,-11.9 0,-6.8 -5.2,-11.6 -11.2,-11.6 z m 24.2,33.5 h 5.1 l 2.5,-6.4 -10.5,-26.5 h -4.3 v -5.1 h 14.5 v 5.1 h -4.5 l 7.6,19.4 7.7,-19.4 h -4.5 v -5.1 h 14.4 v 5.1 h -4.2 l -13,32.9 h 4.5 v 5.1 h -15.3 z m 62,-26.9 h 26.1 v 21.5 h -4.6 v -6.8 c -4.7,5.1 -10.1,7.6 -16.6,7.6 -12.9,0 -22,-10.1 -22,-22.6 0,-11.6 9.3,-22 22.6,-22 4.9,0 8.9,1.4 13.1,4.5 v -3.6 h 4.7 v 11.5 h -5.3 c -3.7,-4.3 -7.7,-6.4 -12.8,-6.4 -9.2,0 -15.9,7.4 -15.9,16.2 0,9.4 7,16.5 15.9,16.5 6.7,0 12.6,-4.4 14.6,-11.2 H 206 v -5.2 z m 64.2,11.2 c -2.8,7.1 -8.8,11.1 -15.9,11.1 -9.5,0 -17,-7.5 -17,-17 0,-9.7 7.9,-17.2 16.9,-17.2 9.5,0 17.1,7.4 17.1,17.5 0,0.5 0,1.1 -0.1,1.9 h -28 c 0.9,5.8 5.5,9.6 11,9.6 4.1,0 7.6,-2 9.6,-5.8 h 6.4 z m -5,-8.5 c -1.5,-6 -5.6,-9.5 -10.9,-9.5 -5.4,0 -10,3.7 -11.1,9.5 z m 12.7,-8.8 h -5 v -5 h 5 v -10.3 h 5.5 v 10.3 h 4.8 v 5 h -4.8 V 294 h 4.8 v 5.1 h -10.3 z m 18.3,0 h -5 v -5 h 5 v -10.3 h 5.5 v 10.3 h 4.8 v 5 h -4.8 V 294 h 4.8 v 5.1 H 296 Z m 20.8,33 h 5.1 l 2.6,-6.4 -10.5,-26.5 h -4.3 v -5.1 h 14.5 v 5.1 h -4.5 l 7.6,19.4 7.7,-19.4 h -4.5 v -5.1 H 345 v 5.1 h -4.2 l -13.1,32.9 h 4.6 v 5.1 h -15.4 v -5.1 z m 44.6,-10.6 h 4.8 v -32.6 h -4.8 v -5.2 H 377 v 5.2 h -4.9 v 32.6 h 4.9 v 5.2 h -15.6 z m 20.2,0.1 h 4.6 v -22.4 h -4.6 v -5 h 10 v 4.6 c 2,-3.5 4.8,-5.2 8.9,-5.2 4.8,0 8.3,2.3 10.2,6.5 2.5,-4.5 5.6,-6.6 10,-6.6 8,0 11.7,5.8 11.7,13.9 V 294 h 4.7 v 5.1 H 422.2 V 294 h 4.7 v -14.5 c 0,-5.5 -2.5,-8.4 -7,-8.4 -5.2,0 -8,3.9 -8,11.5 V 294 h 4.7 v 5.1 H 402 V 294 h 4.7 v -10.8 c 0,-7.7 -0.8,-12.1 -7.2,-12.1 -4.9,0 -7.8,3.9 -7.8,11.5 V 294 h 4.7 v 5.1 h -14.8 z m 85.6,0.8 c -3.4,3.5 -6.9,5 -11.2,5 -9.9,0 -17,-7.4 -17,-17.1 0,-9.6 6.8,-17 16.7,-17 4.6,0 8.4,1.5 11.6,5 v -4.3 h 10.1 v 5 h -4.6 v 22.4 h 4.7 V 299 H 467.2 Z M 456,271 c -6,0 -11.2,4.8 -11.2,11.6 0,7 5.2,11.9 11.3,11.9 6,0 11.2,-5.1 11.2,-11.6 0,-6.9 -5.2,-11.9 -11.3,-11.9 z m 32.4,30 c 1.2,3.5 4.2,5.3 8.8,5.3 5.8,0 10.7,-4.2 10.9,-10.2 l 0.1,-1.6 c -3.3,3.6 -6.8,5.3 -11.3,5.3 -9.7,0 -16.8,-7.3 -16.8,-17 0,-9.4 6.9,-17 16.6,-17 4.7,0 8.4,1.7 11.6,5.4 v -4.6 h 10.1 v 5.1 h -4.6 v 22.1 c 0,11.2 -6.5,17.4 -16.5,17.4 -7.9,0 -13.1,-3.4 -15.2,-10.1 h 6.3 z m 19.9,-18 c 0,-6.9 -5.1,-12 -11.2,-12 -6,0 -11.2,4.9 -11.2,11.7 0,7.1 5.2,11.9 11.2,11.9 6,0 11.2,-5.2 11.2,-11.6 z m 45.1,5.8 c -2.8,7.1 -8.7,11.1 -15.9,11.1 -9.5,0 -17,-7.5 -17,-17 0,-9.7 7.9,-17.2 16.9,-17.2 9.5,0 17.2,7.4 17.2,17.5 0,0.5 0,1.1 -0.1,1.9 h -27.9 c 0.9,5.8 5.5,9.6 11,9.6 4.1,0 7.6,-2 9.6,-5.8 h 6.2 z m -5,-8.5 c -1.4,-6 -5.6,-9.5 -10.9,-9.5 -5.4,0 -10,3.7 -11.1,9.5 z m 9.4,8.5 h 5.4 c 0,3.1 2.7,6.3 6.8,6.3 3.4,0 5.4,-1.8 5.4,-5 0,-3.5 -2.6,-4.8 -8.3,-5.9 -7.3,-1.5 -8.9,-5.3 -8.9,-9.2 0,-5.4 3.8,-9.4 10,-9.4 2.7,0 4.8,0.9 6.5,2.8 v -2 h 4.5 v 8.7 h -5 c -0.8,-3.2 -2.6,-4.6 -5.7,-4.6 -3,0 -4.7,1.5 -4.7,4 0,3.6 3,4.3 8,5.6 6.3,1.7 9.3,4.4 9.3,9.7 0,6.1 -4.2,10.2 -11,10.2 -3.1,0 -5.4,-1 -7.5,-3.2 v 2.4 h -5 v -10.4 z"
   id="path889"
   inkscape:connector-curvature="0"
   style="clip-rule:evenodd;fill-rule:evenodd" />
	<g
   id="g895">
		<path
   d="m 593.6,255.4 v 2 h -3.1 v 9.6 h -2.2 v -9.6 h -3.1 v -2 z"
   id="path891"
   inkscape:connector-curvature="0" />
		<path
   d="m 601.1,262.4 4.2,-6.9 h 1.6 V 267 h -2.2 v -6.4 l -2.8,4.5 h -1.6 l -2.8,-4.5 v 6.4 h -2.2 v -11.6 h 1.6 z"
   id="path893"
   inkscape:connector-curvature="0" />
	</g>
</g>
</svg>