<svg width="16" height="16" viewBox="0 0 16 16" fill="none" xmlns="http://www.w3.org/2000/svg"><path fill-rule="evenodd" clip-rule="evenodd" d="M12.437 15.264a.779.779 0 01-.363-.09l-4.09-2.15-4.09 2.15a.78.78 0 01-1.13-.822l.78-4.554L.235 6.573a.78.78 0 01.433-1.33l4.572-.665L7.285.435a.78.78 0 011.399 0l2.045 4.143 4.572.665a.78.78 0 01.432 1.33l-3.308 3.225.78 4.554a.78.78 0 01-.768.912zm-4.453-3.9c.125 0 .25.03.363.089l3.055 1.606-.584-3.401a.78.78 0 01.225-.69l2.47-2.41-3.414-.495a.78.78 0 01-.587-.427L7.984 2.542 6.457 5.636a.78.78 0 01-.587.427l-3.415.496 2.471 2.408a.78.78 0 01.225.69l-.584 3.402 3.055-1.606a.78.78 0 01.362-.09z" fill="#374957"/></svg>