<svg width="178" height="36" viewBox="0 0 178 36" xmlns="http://www.w3.org/2000/svg"><g fill="none"><g fill="#5F5FF6"><path d="M33.649 4.013L11.827.413h-.236c-.71 0-1.301.531-1.301 1.298v1.712l19.87 3.246a2.985 2.985 0 012.483 2.95v17.056l1.656.295h.237c.71 0 1.3-.53 1.3-1.298V6.551c-.059-1.299-.946-2.36-2.187-2.538z"/><path d="M28.681 8.498l-21.88-3.6h-.237c-.71 0-1.3.532-1.3 1.299v1.77l19.691 3.246a2.985 2.985 0 012.484 2.95V31.28l1.656.295h.237c.71 0 1.3-.531 1.3-1.299V10.8c0-1.121-.827-2.125-1.95-2.302z"/><path d="M23.536 12.807l-21.821-3.6h-.237c-.71 0-1.3.53-1.3 1.298v19.83c0 .885.65 1.652 1.537 1.77l22.353 3.718h.237c.71 0 1.301-.531 1.301-1.298V15.226a2.578 2.578 0 00-2.07-2.42zM10.053 26.439c0 .413-.532.59-.828.295l-5.322-4.898c-.296-.236-.296-.708 0-.826l5.322-3.069c.355-.177.828.118.828.59v7.908zm11.177-1.77l-5.322 3.187c-.355.236-.828-.118-.828-.59v-7.968c0-.413.473-.59.828-.295l5.322 4.78c.296.296.296.709 0 .886z"/></g><path d="M59.077 14.695c-1.478-.708-3.785-1.475-5.854-1.475-1.893 0-2.839.649-2.839 1.652 0 1.062 1.301 1.298 3.016 1.594l1.656.236c3.962.59 6.21 2.36 6.21 5.488 0 3.777-3.135 6.256-8.457 6.256-2.484 0-5.796-.472-8.161-2.184l1.951-3.777c1.597 1.063 3.49 1.83 6.269 1.83 2.306 0 3.43-.65 3.43-1.712 0-.885-.947-1.357-3.075-1.711l-1.479-.236c-4.258-.59-6.387-2.42-6.387-5.548 0-3.777 2.898-6.02 7.747-6.02 2.957 0 5.263.532 7.688 1.771l-1.715 3.836zm9.698 13.279h-4.967V.649h4.967zm8.753-24.551c.059 2.184-1.893 3.777-4.2 3.128-.827-.236-1.714-1.121-1.95-1.948-.71-2.301.886-4.308 3.074-4.249 1.656.06 3.016 1.416 3.076 3.069zm-.65 24.492H71.91V9.56h4.967v18.354zM93.317 11.45V.59h4.967v27.325h-4.849v-2.007c-1.183 1.476-2.957 2.479-5.5 2.479-5.085 0-8.929-4.131-8.929-9.679 0-5.547 3.844-9.678 8.93-9.678 2.483 0 4.198 1.003 5.38 2.42zm-9.225 7.258c0 2.833 1.833 5.076 4.73 5.076 2.84 0 4.731-2.184 4.731-5.076 0-2.892-1.892-5.075-4.73-5.075-2.898 0-4.731 2.301-4.731 5.075zm34.831 0c0 .59-.06 1.24-.118 1.653h-13.07c.533 2.655 2.366 3.836 4.731 3.836 1.597 0 3.312-.65 4.672-1.77l2.898 3.186c-2.07 1.889-4.731 2.774-7.865 2.774-5.618 0-9.58-3.836-9.58-9.62 0-5.783 3.784-9.737 9.284-9.737 5.381 0 8.989 3.954 9.048 9.678zm-13.128-1.711h8.16c-.473-2.36-1.892-3.66-4.02-3.66-2.366 0-3.726 1.358-4.14 3.66zm28.858-2.302c-1.478-.708-3.785-1.475-5.854-1.475-1.893 0-2.839.649-2.839 1.652 0 1.062 1.301 1.298 3.016 1.594l1.656.236c3.962.59 6.21 2.36 6.21 5.488 0 3.777-3.135 6.256-8.457 6.256-2.484 0-5.796-.472-8.161-2.184l1.951-3.777c1.597 1.063 3.49 1.83 6.269 1.83 2.306 0 3.43-.65 3.43-1.712 0-.885-.946-1.357-3.075-1.711l-1.479-.236c-4.258-.59-6.386-2.42-6.386-5.548 0-3.777 2.897-6.02 7.746-6.02 2.957 0 5.264.532 7.688 1.771l-1.715 3.836zm19.397-2.065V9.915h2.838v16.701c0 5.843-3.962 9.089-9.52 9.089-2.898 0-5.737-.885-7.57-2.42l1.242-2.301a10.46 10.46 0 006.327 2.124c3.903 0 6.683-2.242 6.683-6.433v-1.83c-1.36 1.89-3.49 3.07-6.446 3.07-5.027 0-8.93-3.777-8.93-9.207 0-5.43 3.844-9.206 8.93-9.206 2.957.118 5.086 1.298 6.446 3.128zm-12.419 6.196c0 3.66 2.543 6.551 6.328 6.551 3.844 0 6.564-3.069 6.327-7.023-.177-3.423-3.075-6.138-6.505-6.079-3.666.06-6.15 2.951-6.15 6.551zm36.369 0c0 5.312-4.08 9.325-9.462 9.325-5.381 0-9.462-4.013-9.462-9.325 0-5.311 4.022-9.324 9.462-9.324 5.44 0 9.462 4.013 9.462 9.324zm-16.026 0c0 3.895 2.839 6.67 6.564 6.67 3.726 0 6.564-2.834 6.564-6.67 0-3.895-2.838-6.669-6.564-6.669-3.725 0-6.564 2.774-6.564 6.67z" fill="#0E2A47"/></g></svg>